<svg xmlns="http://www.w3.org/2000/svg" viewBox="0 0 760 260" role="img" aria-labelledby="title desc"><title id="title">BASEERA | بصيرة للحلول الرقمية</title><desc id="desc">الشعار الرسمي لشركة بصيرة للحلول الرقمية</desc><defs><linearGradient id="brand" x1="0" y1="0" x2="1" y2="1"><stop offset="0" stop-color="#13c7b7"/><stop offset="0.45" stop-color="#0897b5"/><stop offset="1" stop-color="#0b1f5f"/></linearGradient><linearGradient id="brand2" x1="0" y1="1" x2="1" y2="0"><stop offset="0" stop-color="#0b1f5f"/><stop offset="1" stop-color="#12c8b8"/></linearGradient></defs><rect width="760" height="260" fill="#fff"/><g transform="translate(24 20)"><path d="M36 18h84c48 0 83 27 83 68 0 24-13 44-35 56 29 10 47 35 47 66 0 7-1 14-3 20h-66c3-5 5-11 5-18 0-28-22-46-57-46H36V18z" fill="url(#brand)"/><path d="M72 60h46c21 0 36 11 36 28s-15 29-36 29H72V60zm0 84h55c27 0 45 13 45 33s-18 34-45 34H72v-67z" fill="#fff" opacity=".98"/><path d="M58 132c36-43 96-59 149-28-35 48-101 70-149 28z" fill="url(#brand2)" opacity=".95"/><ellipse cx="135" cy="127" rx="34" ry="23" fill="#fff"/><circle cx="140" cy="127" r="12" fill="#24b6d7"/><circle cx="145" cy="122" r="4" fill="#fff" opacity=".85"/><path d="M41 199c52 16 119 3 164-42-18 49-70 83-132 83H41v-41z" fill="url(#brand2)"/></g><line x1="268" y1="34" x2="268" y2="226" stroke="#0b1f5f" stroke-width="3"/><g font-family="Arial,Helvetica,sans-serif"><text x="309" y="96" font-size="62" font-weight="800" letter-spacing="1"><tspan fill="#0b1f5f">B</tspan><tspan fill="#0fa9b0">A</tspan><tspan fill="#0b1f5f">SEER</tspan><tspan fill="#0fa9b0">A</tspan></text><line x1="310" y1="112" x2="710" y2="112" stroke="#18b8c1" stroke-width="2" opacity=".7"/><text x="312" y="158" font-family="Tahoma,Arial,sans-serif" font-size="38" font-weight="700" fill="#0b1f5f">بصيرة</text><text x="510" y="158" font-family="Tahoma,Arial,sans-serif" font-size="23" fill="#0b1f5f">للحلول الرقمية</text><line x1="310" y1="176" x2="710" y2="176" stroke="#18b8c1" stroke-width="2" opacity=".7"/><text x="311" y="210" font-size="20" letter-spacing="6" fill="#0b1f5f">DIGITAL SOLUTIONS</text></g></svg>